<svg xmlns="http://www.w3.org/2000/svg" height="24px" viewBox="0 0 24 24" width="24px" fill="#000000">
    <path d="M0 0h24v24H0V0z" fill="none"/>
    <path d="M12 6.5c-3.02 0-5.7 1.41-7.5 3.57L3.12 8.69c.53-.79 1.13-1.53 1.8-2.2C8.5 4.19 10.17 3 12 3c4.05 0 7.59 2.61 9.12 6.5-.66 1.67-1.64 3.16-2.85 4.37L20.49 20l-1.41 1.41L3.51 4.91 4.92 3.5 7.5 6.08c1.21-.91 2.66-1.58 4.22-1.83l1.18 1.18C12.62 5.29 12.32 5.26 12 5.26c-3.02 0-5.7 1.41-7.5 3.57l1.5 1.5C8.3 7.91 10.07 6.5 12 6.5c1.67 0 3.15.67 4.23 1.75l1.46-1.46c-1.55-1.27-3.38-2.05-5.36-2.23l1.18 1.18C14.38 5.79 14.68 5.76 15 5.76c3.02 0 5.7 1.41 7.5 3.57L21 8.69c-1.8-2.16-4.48-3.57-7.5-3.57-2.01 0-3.85.79-5.25 2.08L7.42 5.08C8.35 4.15 10.09 3.5 12 3.5c4.05 0 7.59 2.61 9.12 6.5-.66 1.67-1.64 3.16-2.85 4.37L20.49 20l-1.41 1.41L3.51 4.91 4.92 3.5 7.5 6.08C8.71 5.17 10.17 4.5 12 4.5zM12 15c-1.66 0-3-1.34-3-3s1.34-3 3-3 3 1.34 3 3-1.34 3-3 3z"/>
</svg>
